<svg width="20" height="20" viewBox="0 0 20 20" fill="none" xmlns="http://www.w3.org/2000/svg">
<path fill-rule="evenodd" clip-rule="evenodd" d="M10 3.99999C13.3138 3.99999 16 6.75395 16 10.1518C16 12.8692 14.2828 15.1744 11.9002 15.9886C11.596 16.0492 11.488 15.8571 11.488 15.6933C11.488 15.4905 11.4952 14.8281 11.4952 14.0049C11.4952 13.4313 11.3032 13.0569 11.0878 12.8661C12.424 12.7137 13.828 12.1935 13.828 9.83066C13.828 9.15866 13.5952 8.61028 13.21 8.17948C13.2724 8.02408 13.4782 7.39836 13.1512 6.55116C13.1512 6.55116 12.6484 6.38633 11.503 7.18193C11.0236 7.04573 10.51 6.9772 10 6.9748C9.49 6.9772 8.977 7.04573 8.4982 7.18193C7.3516 6.38633 6.8476 6.55116 6.8476 6.55116C6.5218 7.39836 6.7276 8.02408 6.7894 8.17948C6.406 8.61028 6.1714 9.15866 6.1714 9.83066C6.1714 12.1875 7.5724 12.7157 8.905 12.8711C8.7334 13.0247 8.578 13.2956 8.524 13.6934C8.182 13.8506 7.3132 14.1227 6.778 13.1825C6.778 13.1825 6.4606 12.5914 5.8582 12.5482C5.8582 12.5482 5.2732 12.5405 5.8174 12.9221C5.8174 12.9221 6.2104 13.1111 6.4834 13.8221C6.4834 13.8221 6.8356 14.92 8.5048 14.548C8.5078 15.0622 8.5132 15.5469 8.5132 15.6933C8.5132 15.8559 8.4028 16.0462 8.1034 15.9892C5.719 15.1762 4 12.8698 4 10.1518C4 6.75395 6.6868 3.99999 10 3.99999Z" fill="#1A1A1A"/>
<path d="M8.29432 15.9786L11.674 15.9734L11.5654 15.9218L8.3925 15.9321L8.29432 15.9786Z" fill="#374151"/>
<path d="M8.4519 15.895C8.51955 15.8097 8.51946 15.8108 8.51488 15.1522C8.51261 14.8257 8.50751 14.5554 8.50356 14.5514C8.4996 14.5475 8.45788 14.5519 8.41085 14.5612C8.24737 14.5935 8.10729 14.6097 7.93775 14.616C7.54249 14.6305 7.21384 14.5479 6.93656 14.3643C6.75775 14.246 6.57672 14.0307 6.50071 13.846C6.39712 13.5943 6.3201 13.4475 6.20993 13.2916C6.11825 13.1619 5.96812 13.0129 5.85002 12.9345C5.79602 12.8987 5.7185 12.8361 5.67775 12.7956C5.56143 12.6798 5.56446 12.6192 5.68872 12.5762C5.76321 12.5504 5.92218 12.553 6.02865 12.5817C6.32421 12.6616 6.57534 12.8691 6.78559 13.2073C7.01355 13.574 7.2612 13.7657 7.59487 13.8337C7.72061 13.8593 7.9293 13.8619 8.06725 13.8395C8.25029 13.8098 8.51273 13.7212 8.52725 13.6842C8.53171 13.6728 8.543 13.6216 8.55233 13.5705C8.5973 13.324 8.71113 13.0847 8.85603 12.9322C8.88712 12.8995 8.91066 12.8711 8.90833 12.8692C8.906 12.8673 8.84596 12.8579 8.77491 12.8483C7.80897 12.7178 7.14663 12.3895 6.72858 11.8341C6.44469 11.4569 6.27982 11.0001 6.20452 10.382C6.19045 10.2666 6.18622 10.1527 6.1861 9.88595C6.18593 9.51144 6.19482 9.42508 6.25894 9.17837C6.34491 8.84759 6.51339 8.51932 6.72976 8.26098C6.76318 8.22108 6.79053 8.18366 6.79053 8.17784C6.79053 8.17202 6.77635 8.12298 6.75901 8.06886C6.6999 7.88432 6.68248 7.75021 6.68223 7.47782C6.68195 7.16446 6.70949 6.9875 6.80569 6.68459L6.83277 6.59932H7.35119L7.45585 6.63446C7.73494 6.72817 8.04469 6.88746 8.37362 7.10643L8.49427 7.18675L8.67557 7.14178C9.53764 6.92795 10.4806 6.92955 11.3427 7.1463L11.5045 7.18701L11.6513 7.09075C11.9859 6.87121 12.3238 6.70072 12.582 6.62116C12.646 6.60143 12.6775 6.59932 12.9083 6.59932H13.1638L13.1965 6.70009C13.2808 6.96022 13.3123 7.14053 13.3196 7.40575C13.3273 7.68457 13.3028 7.87945 13.2329 8.09481L13.2055 8.17953L13.2355 8.21719C13.5655 8.63053 13.7141 8.95449 13.7944 9.43636C13.8212 9.59685 13.8214 10.1624 13.7947 10.382C13.7321 10.8988 13.6034 11.3106 13.4006 11.6429C12.9908 12.3147 12.3115 12.6919 11.2425 12.8412C11.1587 12.8529 11.0868 12.8625 11.0827 12.8625C11.0786 12.8625 11.0989 12.8869 11.1279 12.9168C11.2849 13.0783 11.3976 13.3131 11.4509 13.5892C11.4913 13.7984 11.495 13.9273 11.4873 14.8523C11.4792 15.8144 11.4782 15.7941 11.5391 15.8838L11.5654 15.9218L10.1259 15.9218C9.33455 15.9218 8.62693 15.9249 8.55344 15.9287L8.41982 15.9355L8.4519 15.895Z" fill="white"/>
</svg>
