<svg width="20" height="20" viewBox="0 0 20 20" fill="none" xmlns="http://www.w3.org/2000/svg">
<path fill-rule="evenodd" clip-rule="evenodd" d="M6.72417 16V7.90322H4.15206V16L6.72417 16ZM5.43838 6.79815C6.33505 6.79815 6.8936 6.17589 6.8936 5.39893C6.87665 4.60469 6.33505 4 5.4552 4C4.5752 4.00002 4 4.60472 4 5.39895C4 6.17592 4.55825 6.79817 5.42145 6.79817L5.43838 6.79815ZM8.14773 16C8.14773 16 8.18148 8.66291 8.14773 7.90324H10.7202V9.07745H10.7032C11.0414 8.52491 11.6508 7.71311 13.0384 7.71311C14.7312 7.71311 16 8.87034 16 11.3574V16H13.4279V11.6685C13.4279 10.5801 13.0557 9.83738 12.1247 9.83738C11.4142 9.83738 10.9908 10.3381 10.8048 10.8221C10.7368 10.9943 10.7202 11.2363 10.7202 11.4783V16H8.14773Z" fill="#1A1A1A"/>
</svg>
